Patient4_TMGait_0pt5_02_left_23_EMG.mot
version=1
nRows=16
nColumns=33
inDegrees=no
endheader
time	1LAddLong	2LGlutMax	3LGlutMed	4LIliopsoas	5LSemiMemb	6LBicFemLong	7LRecFem	8LVastMed	9LVastLat	10LGasMed	11LTibAnt	12lTibPost	13LPeroneusLong	14LSol	15LExtDigLong	16LFlexDigLong	17RAddLong	18RGlutMax	19RGlutMed	20RIliopsoas	21RSemiMemb	22RBicFemLong	23RRecFem	24RVastMed	25RVastLat	26RGasMed	27RTibAnt	28RTibPost	29RPeroneusLong	30RSol	31RExtDigLong	32RFlexDigLong
30.653	0.014496	-0.063171	0.012817	-0.010223	0.060425	-0.00885	0.035553	0.00351	0.092468	-0.016479	0.084534	-0.009003	0.043945	-0.11948	0.14847	-0.43427	0.016785	-0.28564	-0.22339	0.034943	-0.059204	-0.001373	-0.019073	0.10284	0.063934	0.012817	-0.1413	-0.000916	0.11993	-0.16312	-0.011139	-0.003052
30.654	0.009613	-0.03067	-0.000153	0.009003	0.033264	0.021667	0.03418	0.001831	0.097198	-0.028839	0.072174	-0.006256	0.045776	-0.11932	0.14725	0.72174	0.025787	-0.17227	-0.059967	-0.005188	-0.054169	0.001678	-0.06012	-0.010529	-0.016632	0.017395	0.25772	-0.00061	-0.53513	-0.13443	-0.00824	-0.002747
30.655	0.008698	-0.059509	-0.015869	0.003204	-0.010681	0.011139	0.047913	-0.005646	0.095825	-0.03891	0.075836	-0.01358	0.037537	-0.012512	0.31967	0.077057	0.026093	-0.15091	-0.094757	0.038605	-0.052032	0.032501	-0.13367	-0.015564	-0.000458	0.032043	0.62698	-0.001526	-0.15717	-0.29587	-0.011139	-0.000153
30.656	0.015411	-0.032349	0.008545	0.005188	0.010071	-0.020142	0.031433	-0.000458	0.094604	-0.038757	0.062866	-0.008392	0.084686	0.10544	0.11459	-0.10361	0.003052	-0.007172	0.27115	0.009918	-0.00824	0.019989	-0.09552	-0.084381	0.17899	0.029602	-0.13565	-0.008392	1.1543	-0.24155	-0.006866	-0.001984
30.657	0.009155	-0.043488	-0.026703	-0.006866	0.046692	-0.024261	0.017395	-0.002899	0.085907	-0.032654	0.018005	-0.00946	0.067902	0.1088	0.062714	-0.23499	0.01236	0.1326	0.58319	-0.013275	-0.01358	-0.021973	0.21774	-0.16586	0.23331	0.000305	-0.078278	-0.014343	1.2483	0.067749	-0.005188	-0.010986
30.658	0.015564	-0.054626	-0.056	0.006409	0.015717	0.00412	0.029907	-0.002594	0.099335	-0.022583	-0.001373	0.001373	0.10559	0.06485	-0.02655	0.3418	0.020294	0.066223	0.37399	-0.028839	-0.030975	-0.050659	0.46127	-0.11475	0.089874	-0.020905	0.56641	-0.015717	0.82596	0.29755	-0.014954	-0.013733
30.659	0.02243	-0.074005	-0.076141	-0.003967	-0.01709	-0.011597	0.025024	-0.002289	0.10223	-0.023956	0.001373	-0.010376	0.1149	-0.028534	-0.08255	-0.040131	0.014801	0.003815	0.17334	-0.005188	-0.019989	-0.03067	0.51453	0.016327	0.092316	-0.024414	0.5983	-0.010529	-0.32364	0.3746	-0.015869	-0.012817
30.66	0.010223	-0.080261	-0.10086	-0.00412	-0.051727	-0.037384	0.027466	0.001526	0.09491	-0.022736	-0.002747	-0.007324	0.12024	-0.12894	-0.10071	0.010834	-0.006104	-0.012207	0.023804	-0.032959	0.000305	0.0354	0.37674	0.085297	0.16541	-0.019379	-0.24521	-0.002594	0.8371	0.38101	-0.012512	-0.014954
30.661	0.010986	-0.078735	-0.10239	0.001068	-0.037231	-0.025635	0.029907	-0.003357	0.10071	-0.00946	0.10239	0.00061	0.1207	-0.16464	-0.048828	-0.009918	-0.001068	-0.041962	-0.13397	-0.097656	0.009155	-0.005798	0.29419	0.20477	0.22583	-0.007782	-0.8873	-0.011292	1.5669	0.43518	-0.008545	-0.010986
30.662	0.005951	-0.089417	-0.10361	-0.000763	0.040741	-0.018005	0.025787	0.000916	0.103	0.001068	0.1239	-0.003815	0.063171	-0.072632	-0.006256	0.005646	0.006714	-0.08667	0.010071	-0.089417	0.02182	-0.020447	-0.039673	0.14389	0.15427	-0.002441	-0.63675	-0.002136	-0.17319	0.36423	-0.010986	-0.002289
30.663	0.004883	-0.093079	-0.024567	0	0.04364	-0.018463	0.036621	-0.001831	0.093231	-0.012817	-0.06424	0.002899	0.13794	0.040131	-0.002747	0.005493	0.013733	-0.093079	0.43869	-0.025482	0.005188	-0.035706	-0.48141	0.04364	0.13534	-0.022583	-0.14755	-0.00824	-1.1435	0.46509	-0.008545	-0.01358
30.664	0.003662	-0.095367	0.092773	0.004578	0.02182	-0.001526	0.042419	-0.003815	0.093842	-0.018921	-0.069122	-0.007782	0.097656	-0.02243	0.032654	-0.029602	0.022125	-0.075989	0.32532	0.039215	0.028076	0.01709	-0.53177	-0.04303	0.14694	-0.032806	-0.014648	-0.011597	-0.32822	0.51636	-0.011444	-0.0177
30.665	-0.003204	-0.11749	0.11307	-0.001068	0.00885	-0.018005	0.024872	0.012512	0.095825	0.002747	-0.028992	-0.002594	0.024719	-0.08728	0.053864	-0.026245	0.015869	-0.098114	-0.10193	0.077362	0.011139	0.006866	-0.28686	0.02121	0.11948	-0.025635	0.50049	0	0.13336	0.34058	-0.008392	-0.019226
30.666	-0.005951	-0.14679	0.11124	0.006714	-0.007629	-0.027618	0.027466	0.007172	0.087433	-0.002441	0.0177	0.006104	-0.003967	-0.045471	0.004578	-0.019836	0.002594	-0.046082	-0.3122	0.038605	-0.003204	-0.014801	-0.15823	0.009308	0.027466	-0.020447	0.92102	-0.007172	-0.79575	0.075226	-0.001526	-0.014801
30.667	0.006256	-0.15152	0.078888	-0.002899	0.022125	-0.049438	0.025177	-0.006104	0.096283	-0.02182	0.031128	-0.001221	0.011139	-0.037994	0.13077	-0.023499	0.00824	0.002441	-0.1503	-0.069885	-0.012054	-0.019226	-0.271	-0.045929	0.011139	-0.006409	0.60638	-0.000305	-0.47119	-0.19653	-0.011139	-0.008698
30.668	0.006866	-0.15015	0.064697	-0.016937	0.001678	-0.043488	0.012207	-0.011444	0.1001	-0.015869	0.052948	-0.001984	0.017395	-0.087891	0.12405	-0.016632	0.021667	0.007172	0.21484	-0.103	-0.014954	0.021973	-0.16327	-0.028839	0.000763	-0.00824	0.28503	-0.001831	0.30563	-0.21744	-0.010376	-0.011749
